<svg width="100" height="100" viewBox="0 0 100 100" fill="none" xmlns="http://www.w3.org/2000/svg">
<rect width="100" height="100" fill="black" fill-opacity="0"/>
<rect width="100" height="100" fill="black" fill-opacity="0"/>
<rect width="94.8446" height="100" fill="black" fill-opacity="0"/>
<rect width="94.8446" height="100" fill="black" fill-opacity="0"/>
<path d="M4.92775 68.251L9.03998 76.2814L6.58492 75.7591L3.82296 70.0791L4.92775 68.251ZM73.4855 55.6504L70.4781 49.448C69.6802 49.8398 68.8823 50.2315 68.0844 50.5579L70.4167 55.1281C71.276 55.3892 72.3194 55.5851 73.4855 55.6504C73.4855 55.6504 72.749 56.3686 71.5215 57.3479L86.1291 85.8135L89.2593 92.2117L85.945 91.5589L83.1217 86.0094L69.7415 58.5884C69.0664 59.0454 68.3913 59.4371 67.5934 59.8288L81.4645 86.9234L83.4899 91.1018L80.1142 90.449L78.3957 87.1845L65.5065 60.8082C64.7086 61.0693 63.9108 61.2652 63.0515 61.3957L76.7385 88.0986L77.6591 89.992L74.3448 89.3391L73.7924 88.2292L60.6578 61.3305C60.3509 61.2652 60.1054 61.2652 59.7985 61.1999C59.9827 62.5056 60.044 63.8767 59.9213 65.2477L72.0125 88.8167L68.5754 88.1639L59.3075 68.9692C59.0006 69.9485 58.6324 70.9278 58.2027 71.8418L66.3044 87.7069L62.9287 87.054L56.6683 74.1922C56.1773 74.7798 55.6863 75.3674 55.1339 75.8244L55.0725 75.8897L60.535 86.5317L57.5276 85.9441L53.1698 77.0649C52.4947 77.3913 51.8195 77.6525 51.1444 77.8484L55.0111 85.4218L51.7582 84.7689L48.6893 78.5665C48.0142 78.7624 47.2777 78.9583 46.6025 79.2194L49.1803 84.2466L46.4184 83.7243L44.6385 80.0681C44.0247 80.3946 43.4723 80.721 42.9199 81.1781L43.9633 83.202L41.3241 82.6797C39.9125 84.3772 38.7463 86.7275 38.1325 90.3184C36.8436 97.6307 28.7419 101.287 21.5608 99.5893C15.4845 98.153 14.257 93.1911 14.257 93.1911C20.3947 96.9778 27.8213 96.8472 32.1176 92.7993C35.5547 89.6002 33.7134 85.7482 33.7134 85.7482C32.5473 90.3837 27.2689 92.8646 22.1132 92.3423C18.1851 91.9506 14.8708 91.1018 13.5205 90.1878C12.1702 89.2738 12.1088 87.6416 13.3977 87.511C15.1163 87.3151 14.257 84.6383 13.275 83.7896C12.4157 83.0061 11.4951 82.0268 12.1088 76.7384L6.58492 65.4436L7.81245 63.4197L12.7226 73.017C13.0295 71.9071 13.5205 71.0584 14.1343 70.2749L9.46962 60.7429L10.6358 58.8495L15.6687 68.708C16.3438 68.1857 17.0803 67.7287 17.8168 67.337L12.3543 56.1074L13.4591 54.2793L19.7195 66.4882C20.8857 66.0312 22.1132 65.5742 22.1132 65.5742L15.239 51.4067L15.8528 50.4273C-4.52426 45.8572 -2.0692 24.6385 5.60288 18.632C13.9501 12.1032 21.4995 17.6527 22.6042 20.9171C23.2794 23.0063 21.9905 25.0956 20.0878 25.2261C18.8603 25.2914 16.0369 25.0956 14.6866 25.879C12.5998 27.0542 12.4157 29.8616 12.9681 31.9508C14.4411 36.978 19.2285 36.1945 21.8063 34.7582C24.3228 33.3219 24.4455 29.6004 27.5144 30.8409C28.8033 31.3632 29.4784 32.7996 28.9874 34.1706L32.3631 40.7647C33.3452 39.9812 34.3886 39.916 35.3092 40.5688C35.4933 40.6994 35.6161 40.83 35.8002 40.9606L29.5398 28.1641L30.2763 27.0542L42.3675 50.6232C43.2268 50.6232 44.1474 50.4926 45.1295 50.0356L32.179 23.9204L32.9769 22.6799L46.6639 49.448C47.5845 49.1869 48.628 49.1216 49.61 49.1869L35.0637 19.3502L35.8002 18.175L51.9423 49.6439C52.6788 49.905 53.4153 50.2315 53.9064 50.6232C54.1519 50.8191 54.336 50.9497 54.5201 51.1455C54.7656 50.9497 55.0725 50.6885 55.318 50.4273L51.2671 42.201H51.083C47.8914 42.5275 47.8914 39.916 48.3825 38.9366C48.628 38.5449 48.9348 38.2185 49.2417 38.0226L41.2627 21.6353L41.9993 20.3948L50.9603 37.892C51.2671 38.0226 51.5127 38.2185 51.6968 38.4143C52.9857 40.0465 54.8884 39.916 55.5635 38.6755C56.3614 37.3044 55.4408 36.1292 53.1698 34.9541C52.5561 34.6276 52.2492 34.1053 52.1264 33.583L44.0247 16.9998L44.8226 15.7594L52.8629 31.4285C53.845 30.5798 55.809 30.9062 56.3614 32.8649C56.7297 34.2359 57.4662 35.0846 58.2641 35.4764H58.3255L47.0935 12.2338L47.8301 11.0586L60.4736 35.7375C60.5964 35.7375 60.6578 35.7375 60.7192 35.6722C62.1922 35.2805 62.6832 33.4524 62.1922 32.0814C61.3329 29.6004 57.4662 29.0781 57.4662 25.422C57.4662 24.8344 57.6503 24.3121 57.9572 23.8551L49.9782 7.53305L50.4693 6.7496L58.8165 23.0063C60.2282 22.0923 62.4377 22.6799 63.297 27.1195C63.6652 28.9476 65.1383 31.4938 66.6113 32.6037C68.0844 33.7136 70.7849 33.7789 72.3194 32.7343C74.222 31.4285 75.0199 29.1434 74.0379 26.7278C73.24 24.8344 71.9511 23.5939 70.1712 22.6799C69.0664 22.0923 67.5933 21.9617 66.6113 21.0477C63.9721 18.4362 66.6727 13.2784 69.8643 16.2817C71.0304 17.3916 71.6442 18.9585 73.1786 19.6766C74.5289 20.3295 76.984 19.9378 77.9046 18.4362C79.7459 15.3676 78.3956 10.7322 73.4241 10.5363C69.6188 10.4057 67.1023 9.49169 66.1203 7.20661C64.9542 4.59508 68.7595 -0.758537 75.6951 0.0902088C89.689 1.7877 96.5631 19.9378 90.2413 31.4938C86.0677 39.1325 79.3163 44.7473 71.9511 48.5993L94.8446 93.2564L91.7758 92.6687L87.7863 84.8342L73.4855 55.6504ZM25.182 37.3044L29.2329 45.2043C29.7239 45.0737 29.9694 44.4208 30.2149 43.8332C30.4605 43.2457 30.7673 42.6581 31.0128 42.201L27.8213 35.6722C27.2075 36.3251 26.3482 36.8474 25.182 37.3044ZM28.6805 58.066L26.2255 53.0389C25.0593 52.386 23.709 51.8637 22.2974 51.472L27.453 61.5916C28.1281 60.4164 28.6805 57.9355 28.6805 58.066ZM23.8932 44.5514C24.8752 45.4655 26.471 46.1836 27.6985 45.7919L23.7704 37.892C20.7629 39.8507 22.236 43.0498 23.8932 44.5514ZM23.9545 64.856C23.9545 64.856 24.2 64.7907 24.691 64.5296C25.4889 64.1379 26.1641 63.485 26.1641 63.485L20.1492 51.1455C18.9216 51.0149 17.8169 50.8844 16.7121 50.6885L23.9545 64.856ZM31.0742 81.5045C31.0742 81.5045 28.2509 85.4871 25.7345 85.2259C22.727 84.8995 22.8497 90.1878 26.7165 89.3391C30.5832 88.425 32.3018 84.0507 31.0742 81.5045ZM35.0023 50.3621L32.9769 46.1836C31.8107 46.7059 31.3811 47.8158 31.3811 48.991C31.3811 50.3621 32.7314 51.5372 32.7314 51.5372C33.0383 51.3414 33.3452 51.0802 33.652 50.8844C33.8975 50.7538 34.3886 50.5579 35.0023 50.3621ZM40.158 50.4273L36.2912 42.4622C36.414 43.4415 36.0457 44.4861 34.941 45.139C34.7568 45.2696 34.6341 45.3349 34.4499 45.4002L36.7823 49.905C37.4574 49.8397 38.0712 49.7745 38.5622 49.905C39.1146 50.1009 39.667 50.2968 40.158 50.4273ZM49.6714 58.9148C46.7867 58.1966 45.9888 60.1553 45.4364 61.1346C45.6819 61.004 45.9274 60.9387 46.2343 60.9387C47.8301 60.8082 49.2417 62.0486 49.4258 63.7461C49.5486 65.1825 48.6893 66.5535 47.4004 66.9452C47.7687 67.0758 48.1983 67.1411 48.628 67.0758C50.4693 66.88 52.065 65.7701 52.2492 62.8974C52.3106 61.004 51.5127 59.3718 49.6714 58.9148ZM53.4153 42.3969L56.5455 48.534C57.2821 46.1836 55.809 43.3109 53.4153 42.3969ZM67.532 54.1488L66.1817 51.3414C65.3838 51.6678 64.5245 51.9943 63.7266 52.2554L63.9721 52.7777C65.261 53.0389 66.3044 53.5612 67.532 54.1488ZM0.938261 74.6492L3.51608 75.1715L2.22717 72.6253L0.938261 74.6492Z" fill="#152D4E"/>
<rect width="4.05086" height="4.17844" fill="black" fill-opacity="0" transform="translate(95.9492 89.4043)"/>
<path d="M100 91.4935C100 92.6687 99.1408 93.5827 97.9746 93.5827C96.8085 93.5827 95.9492 92.6687 95.9492 91.4935C95.9492 90.3183 96.8699 89.4043 97.9746 89.4043C99.0794 89.4043 100 90.3183 100 91.4935ZM96.4402 91.4935C96.4402 92.4076 97.1154 93.191 97.9746 93.191C98.8339 93.191 99.4477 92.4728 99.4477 91.5588C99.4477 90.6448 98.7725 89.8613 97.9133 89.8613C97.1154 89.796 96.4402 90.5795 96.4402 91.4935ZM97.6678 92.6034H97.2381V90.5142C97.4223 90.5142 97.6678 90.4489 97.9746 90.4489C98.3429 90.4489 98.527 90.5142 98.6498 90.6448C98.7725 90.7101 98.8339 90.9059 98.8339 91.1018C98.8339 91.3629 98.6498 91.4935 98.4043 91.6241C98.5884 91.6894 98.7112 91.8852 98.7726 92.1464C98.8339 92.4728 98.8953 92.6034 98.8953 92.6687H98.4043C98.3429 92.6034 98.2815 92.4075 98.2201 92.1464C98.1588 91.9505 98.036 91.82 97.7905 91.82H97.545V92.6034H97.6678ZM97.6678 91.4282H97.9133C98.1588 91.4282 98.3429 91.3629 98.3429 91.1018C98.3429 90.9059 98.2201 90.7753 97.9133 90.7753C97.7905 90.7753 97.7291 90.7753 97.6678 90.7753V91.4282Z" fill="#152D4E"/>
</svg>
