<svg width="1000" height="1000" viewBox="0 0 1000 1000" fill="none" xmlns="http://www.w3.org/2000/svg">
<rect width="1000" height="1000" fill="black" fill-opacity="0"/>
<rect width="1000" height="1000" fill="black" fill-opacity="0"/>
<rect width="948.446" height="1000" fill="black" fill-opacity="0"/>
<rect width="948.446" height="1000" fill="black" fill-opacity="0"/>
<path d="M49.2775 682.51L90.3998 762.814L65.8491 757.591L38.2296 700.791L49.2775 682.51ZM734.855 556.504L704.781 494.48C696.802 498.398 688.823 502.315 680.844 505.579L704.167 551.281C712.76 553.892 723.194 555.851 734.855 556.504C734.855 556.504 727.49 563.686 715.215 573.479L861.291 858.135L892.593 922.117L859.45 915.589L831.217 860.094L697.415 585.884C690.664 590.454 683.912 594.371 675.933 598.288L814.645 869.234L834.899 911.018L801.142 904.49L783.956 871.845L655.065 608.082C647.086 610.693 639.107 612.652 630.515 613.957L767.385 880.986L776.591 899.919L743.448 893.391L737.924 882.292L606.578 613.305C603.509 612.652 601.054 612.652 597.985 611.999C599.826 625.056 600.44 638.767 599.213 652.477L720.125 888.168L685.754 881.639L593.075 689.692C590.006 699.485 586.324 709.278 582.027 718.418L663.044 877.069L629.287 870.54L566.683 741.922C561.773 747.798 556.863 753.674 551.339 758.244L550.725 758.897L605.35 865.317L575.276 859.441L531.698 770.649C524.947 773.913 518.195 776.525 511.444 778.484L550.111 854.218L517.582 847.689L486.893 785.665C480.142 787.624 472.777 789.583 466.025 792.194L491.803 842.466L464.184 837.243L446.385 800.681C440.247 803.946 434.723 807.21 429.199 811.781L439.633 832.02L413.241 826.797C399.125 843.772 387.463 867.275 381.325 903.184C368.436 976.307 287.419 1012.87 215.608 995.893C154.845 981.53 142.57 931.911 142.57 931.911C203.947 969.778 278.213 968.472 321.176 927.993C355.547 896.002 337.134 857.482 337.134 857.482C325.473 903.837 272.689 928.646 221.132 923.423C181.851 919.506 148.708 911.018 135.205 901.878C121.702 892.738 121.088 876.416 133.977 875.11C151.163 873.151 142.57 846.383 132.75 837.896C124.157 830.061 114.951 820.268 121.088 767.384L65.8491 654.436L78.1245 634.197L127.226 730.17C130.295 719.071 135.205 710.584 141.343 702.749L94.6962 607.429L106.358 588.495L156.687 687.08C163.438 681.857 170.803 677.287 178.168 673.37L123.543 561.074L134.591 542.793L197.195 664.882C208.857 660.312 221.132 655.742 221.132 655.742L152.39 514.067L158.528 504.273C-45.2426 458.572 -20.692 246.385 56.0288 186.32C139.501 121.032 214.995 176.527 226.042 209.171C232.794 230.063 219.905 250.956 200.878 252.261C188.603 252.914 160.369 250.956 146.866 258.79C125.998 270.542 124.157 298.616 129.681 319.508C144.411 369.78 192.285 361.945 218.063 347.582C243.228 333.219 244.455 296.004 275.144 308.409C288.033 313.632 294.784 327.996 289.874 341.706L323.631 407.647C333.452 399.812 343.886 399.16 353.092 405.688C354.933 406.994 356.161 408.3 358.002 409.606L295.398 281.641L302.763 270.542L423.675 506.232C432.268 506.232 441.474 504.926 451.295 500.356L321.79 239.204L329.769 226.799L466.639 494.48C475.845 491.869 486.28 491.216 496.1 491.869L350.637 193.502L358.002 181.75L519.423 496.439C526.788 499.05 534.153 502.315 539.064 506.232C541.519 508.191 543.36 509.497 545.201 511.455C547.656 509.497 550.725 506.885 553.18 504.273L512.671 422.01H510.83C478.914 425.275 478.914 399.16 483.824 389.366C486.28 385.449 489.348 382.185 492.417 380.226L412.627 216.353L419.993 203.948L509.603 378.92C512.671 380.226 515.127 382.185 516.968 384.143C529.857 400.465 548.884 399.16 555.635 386.755C563.614 373.044 554.408 361.292 531.698 349.541C525.561 346.276 522.492 341.053 521.264 335.83L440.247 169.998L448.226 157.594L528.629 314.285C538.45 305.798 558.09 309.062 563.614 328.649C567.297 342.359 574.662 350.846 582.641 354.764H583.255L470.935 122.338L478.301 110.586L604.736 357.375C605.964 357.375 606.578 357.375 607.192 356.722C621.922 352.805 626.832 334.524 621.922 320.814C613.329 296.004 574.662 290.781 574.662 254.22C574.662 248.344 576.503 243.121 579.572 238.551L499.782 75.3305L504.693 67.496L588.165 230.063C602.282 220.923 624.377 226.799 632.97 271.195C636.652 289.476 651.383 314.938 666.113 326.037C680.844 337.136 707.849 337.789 723.194 327.343C742.22 314.285 750.199 291.434 740.379 267.278C732.4 248.344 719.511 235.939 701.712 226.799C690.664 220.923 675.933 219.617 666.113 210.477C639.721 184.362 666.727 132.784 698.643 162.817C710.305 173.916 716.442 189.585 731.786 196.766C745.289 203.295 769.84 199.378 779.046 184.362C797.459 153.676 783.956 107.322 734.241 105.363C696.188 104.057 671.023 94.9169 661.203 72.0661C649.542 45.9508 687.595 -7.58537 756.951 0.902088C896.89 17.877 965.631 199.378 902.413 314.938C860.677 391.325 793.163 447.473 719.511 485.993L948.446 932.564L917.758 926.687L877.863 848.342L734.855 556.504ZM251.82 373.044L292.329 452.043C297.239 450.737 299.694 444.208 302.149 438.332C304.605 432.457 307.673 426.581 310.128 422.01L278.213 356.722C272.075 363.251 263.482 368.474 251.82 373.044ZM286.805 580.66L262.255 530.389C250.593 523.86 237.09 518.637 222.974 514.72L274.53 615.916C281.281 604.164 286.805 579.355 286.805 580.66ZM238.932 445.514C248.752 454.655 264.71 461.836 276.985 457.919L237.704 378.92C207.629 398.507 222.36 430.498 238.932 445.514ZM239.545 648.56C239.545 648.56 242 647.907 246.91 645.296C254.889 641.379 261.641 634.85 261.641 634.85L201.492 511.455C189.216 510.149 178.169 508.844 167.121 506.885L239.545 648.56ZM310.742 815.045C310.742 815.045 282.509 854.871 257.345 852.259C227.27 848.995 228.497 901.878 267.165 893.391C305.832 884.25 323.017 840.507 310.742 815.045ZM350.023 503.621L329.769 461.836C318.107 467.059 313.811 478.158 313.811 489.91C313.811 503.621 327.314 515.372 327.314 515.372C330.383 513.414 333.452 510.802 336.52 508.844C338.975 507.538 343.886 505.579 350.023 503.621ZM401.58 504.273L362.912 424.622C364.14 434.415 360.457 444.861 349.41 451.39C347.568 452.696 346.341 453.349 344.499 454.002L367.823 499.05C374.574 498.397 380.712 497.745 385.622 499.05C391.146 501.009 396.67 502.968 401.58 504.273ZM496.714 589.148C467.867 581.966 459.887 601.553 454.364 611.346C456.819 610.04 459.274 609.387 462.343 609.387C478.301 608.082 492.417 620.486 494.258 637.461C495.486 651.825 486.893 665.535 474.004 669.452C477.687 670.758 481.983 671.411 486.28 670.758C504.693 668.8 520.65 657.701 522.492 628.974C523.106 610.04 515.127 593.718 496.714 589.148ZM534.153 423.969L565.455 485.34C572.821 461.836 558.09 433.109 534.153 423.969ZM675.32 541.488L661.817 513.414C653.838 516.678 645.245 519.943 637.266 522.554L639.721 527.777C652.61 530.389 663.044 535.612 675.32 541.488ZM9.38261 746.492L35.1608 751.715L22.2717 726.253L9.38261 746.492Z" fill="white"/>
<rect width="40.5086" height="41.7844" fill="black" fill-opacity="0" transform="translate(959.492 894.043)"/>
<path d="M1000 914.935C1000 926.687 991.408 935.827 979.746 935.827C968.085 935.827 959.492 926.687 959.492 914.935C959.492 903.183 968.699 894.043 979.746 894.043C990.794 894.043 1000 903.183 1000 914.935ZM964.402 914.935C964.402 924.075 971.154 931.91 979.746 931.91C988.339 931.91 994.477 924.728 994.477 915.588C994.477 906.448 987.725 898.613 979.133 898.613C971.154 897.96 964.402 905.795 964.402 914.935ZM976.678 926.034H972.381V905.142C974.223 905.142 976.678 904.489 979.746 904.489C983.429 904.489 985.27 905.142 986.498 906.448C987.725 907.101 988.339 909.059 988.339 911.018C988.339 913.629 986.498 914.935 984.043 916.241C985.884 916.894 987.112 918.852 987.726 921.464C988.339 924.728 988.953 926.034 988.953 926.687H984.043C983.429 926.034 982.815 924.075 982.201 921.464C981.588 919.505 980.36 918.2 977.905 918.2H975.45V926.034H976.678ZM976.678 914.282H979.133C981.588 914.282 983.429 913.629 983.429 911.018C983.429 909.059 982.201 907.753 979.133 907.753C977.905 907.753 977.291 907.753 976.678 907.753V914.282Z" fill="white"/>
</svg>
