<svg width="1393" height="800" viewBox="0 0 1393 800" fill="none" xmlns="http://www.w3.org/2000/svg">
<rect width="1393" height="800" fill="black" fill-opacity="0"/>
<mask id="mask0" mask-type="alpha" maskUnits="userSpaceOnUse" x="0" y="0" width="1393" height="800">
<rect width="1393" height="800" fill="#C4C4C4"/>
</mask>
<g mask="url(#mask0)">
<path d="M1392.41 0.130859H-0.591797V799.479H1392.41V0.130859Z" fill="#164E7E" fill-opacity="0.9"/>
<rect width="1565.37" height="996.743" fill="black" fill-opacity="0" transform="translate(-87.9424 -174.593)"/>
<rect width="1565.37" height="996.743" fill="black" fill-opacity="0" transform="translate(-87.9424 -174.593)"/>
<rect width="1565.37" height="996.743" fill="black" fill-opacity="0" transform="translate(-87.9424 -174.593)"/>
<rect width="1565.37" height="996.743" fill="black" fill-opacity="0" transform="translate(-87.9424 -174.593)"/>
<rect width="1565.37" height="996.743" fill="black" fill-opacity="0" transform="translate(-87.9424 -174.593)"/>
<rect width="1492.06" height="977.4" fill="black" fill-opacity="0" transform="translate(-23.2979 -173.188)"/>
<path opacity="0.38" d="M1468.76 -173.188H-23.2979V804.211H1468.76V-173.188Z" stroke="white" stroke-opacity="0.3" stroke-width="4" stroke-miterlimit="10" stroke-linecap="round" stroke-linejoin="round"/>
<rect width="197.185" height="65.3463" fill="black" fill-opacity="0" transform="translate(747.922 65.8545)"/>
<path opacity="0.38" d="M900.918 68.0796C870.683 66.2069 840.447 64.3342 820.351 67.7675C798.228 71.5129 788.272 81.5787 773.892 94.0635C756.746 108.967 733.516 127.46 759.696 130.659C771.679 132.142 793.618 130.503 806.155 126.68C828.463 119.813 819.982 106.002 833.625 98.3551C844.503 92.2688 869.208 90.084 896.309 89.3817C915.667 88.8355 936.316 89.1476 942.769 84.6999C948.115 81.0325 943.875 74.2439 934.288 71.0447C925.807 68.3137 913.271 68.2357 900.918 68.0796Z" stroke="white" stroke-opacity="0.3" stroke-width="4" stroke-miterlimit="10" stroke-linecap="round" stroke-linejoin="round"/>
<rect width="354.156" height="105.188" fill="black" fill-opacity="0" transform="translate(675.766 54.6074)"/>
<path opacity="0.38" d="M948.3 57.0779C928.388 58.0923 908.477 59.0286 887.644 58.4044C855.012 57.39 820.351 52.3961 792.697 55.7514C763.198 59.2627 741.812 72.2156 730.013 83.686C716.37 96.951 715.448 108.421 699.593 123.325C686.687 135.498 663.642 149.933 683.553 156.254C695.168 159.999 721.717 160.935 739.6 158.282C764.12 154.615 772.048 144.003 794.54 139.321C814.451 135.108 845.793 135.498 857.224 129.645C869.208 123.559 859.621 110.762 868.654 104.988C881.007 97.1071 928.573 102.569 965.445 100.306C997.34 98.3556 1021.49 90.5526 1028.13 80.3307C1032 74.2444 1029.79 67.3778 1019.65 63.0081C1004.53 56.7658 972.82 55.9855 948.3 57.0779ZM948.3 57.0779C946.64 57.1559 945.165 57.2339 943.506 57.312" stroke="white" stroke-opacity="0.3" stroke-width="4" stroke-miterlimit="10" stroke-linecap="round" stroke-linejoin="round"/>
<rect width="534.224" height="158.682" fill="black" fill-opacity="0" transform="translate(583.396 35.9814)"/>
<path opacity="0.38" d="M991.072 104.051C1007.66 99.9938 1024.26 96.0143 1042.51 92.5029C1066.11 87.8992 1092.66 84.0757 1106.48 76.1167C1119.39 68.7819 1121.6 57.9358 1110.36 50.601C1094.32 40.067 1050.81 36.7117 1013.38 37.5701C969.317 38.5844 933.919 45.5291 892.991 45.0609C841.184 44.5147 780.713 32.0299 739.6 37.2579C700.146 42.1738 678.022 63.2418 663.273 81.8909C648.156 100.852 640.597 117.238 621.238 132.688C609.07 142.286 592.293 151.571 586.025 163.276C581.047 172.483 582.522 183.173 595.796 189.026C623.82 201.276 704.755 191.757 748.449 177.711C773.707 169.518 786.613 159.843 812.055 155.083C843.212 149.231 893.175 150.791 916.773 142.364C936.5 135.263 937.422 121.062 956.965 112.869C965.63 109.045 978.351 106.548 991.072 104.051Z" stroke="white" stroke-opacity="0.3" stroke-width="4" stroke-miterlimit="10" stroke-linecap="round" stroke-linejoin="round"/>
<rect width="762.939" height="217.476" fill="black" fill-opacity="0" transform="translate(471.268 16.6055)"/>
<path opacity="0.38" d="M963.601 136.356C976.876 127.772 989.965 119.267 1008.03 112.4C1037.9 101.086 1080.86 94.3756 1128.79 91.8006C1159.95 90.0839 1193.32 90.162 1213.05 83.4514C1235.72 75.6484 1240.52 58.8721 1225.77 48.3381C1205.49 33.9026 1148.89 31.3276 1098.74 29.3769C1038.08 26.9579 986.831 25.3973 932.075 29.3769C917.142 30.4693 902.024 31.9518 887.644 32.1859C846.53 32.8102 810.395 23.1345 765.41 18.8429C735.175 15.9558 701.067 15.4096 679.681 19.9353C642.993 27.7382 644.468 50.3668 638.384 69.5621C632.853 87.1968 620.869 101.866 601.88 115.288C584.365 127.616 560.951 138.774 535.14 152.039C496.424 172.015 452.361 196.672 479.831 214.541C493.843 223.671 526.659 230.927 558.554 233.268C626.031 238.106 690.19 220.628 736.281 200.262C763.198 188.401 784.031 175.604 822.379 172.327C855.749 169.44 902.024 173.732 922.488 165.617C929.863 162.73 933.735 158.204 938.528 153.99C945.534 147.67 954.752 142.13 963.601 136.356ZM963.601 136.356C964.339 135.887 965.076 135.419 965.814 134.951" stroke="white" stroke-opacity="0.3" stroke-width="4" stroke-miterlimit="10" stroke-linecap="round" stroke-linejoin="round"/>
<rect width="1030.15" height="282.312" fill="black" fill-opacity="0" transform="translate(332.054 -15.0811)"/>
<path opacity="0.38" d="M922.304 16.5798C908.661 19.1547 895.019 21.8077 881.744 22.588C837.313 25.3971 799.149 8.07452 753.243 -3.70796C720.979 -11.9791 684.66 -17.5192 652.949 -14.0079C624.004 -10.8087 598.746 -0.0405611 589.159 10.8836C574.041 27.8941 597.456 45.1386 602.249 63.0854C607.411 82.2807 591.372 102.334 559.661 117.16C524.448 133.546 469.876 143.456 425.075 157.267C377.51 171.859 340.821 190.664 333.447 214.385C327.916 231.942 338.609 252.151 369.951 261.047C407.377 271.737 474.116 266.431 534.219 261.047C604.646 254.804 665.854 248.406 704.755 229.913C737.572 214.229 754.349 189.806 801.362 183.875C851.14 177.555 935.026 192.147 974.295 184.578C1019.65 175.838 1005.45 137.682 1038.27 118.252C1069.24 99.9935 1141.7 98.3548 1218.58 99.6814C1273.52 100.618 1330.67 103.037 1352.06 93.8291C1378.97 82.2027 1348.55 52.0052 1305.23 36.3993C1249.73 16.2676 1172.67 20.1691 1095.05 15.3313C1040.11 11.898 984.619 4.01698 940.372 12.4442C934.288 13.6146 928.204 15.0972 922.304 16.5798Z" stroke="white" stroke-opacity="0.3" stroke-width="4" stroke-miterlimit="10" stroke-linecap="round" stroke-linejoin="round"/>
<rect width="595.81" height="380.941" fill="black" fill-opacity="0" transform="translate(-23.2979 -174.593)"/>
<path opacity="0.38" d="M-23.2979 206.348C103.913 197.453 231.124 188.557 332.34 164.134C390.23 150.167 439.455 131.049 498.083 116.38C510.435 113.259 523.156 110.372 533.665 106.704C569.616 93.9853 580.125 71.5908 567.219 54.0341C543.989 22.5882 445.355 6.98223 377.878 -16.0365C325.887 -33.7492 292.333 -55.8316 275.187 -81.1132C258.779 -105.38 257.304 -132.613 196.279 -146.892C159.96 -155.397 102.807 -159.299 101.516 -173.188C101.516 -173.656 101.516 -174.125 101.516 -174.593" stroke="white" stroke-opacity="0.3" stroke-width="4" stroke-miterlimit="10" stroke-linecap="round" stroke-linejoin="round"/>
<rect width="568.291" height="361.804" fill="black" fill-opacity="0" transform="translate(-23.2979 -174.262)"/>
<path opacity="0.38" d="M-23.2979 187.542C62.8 182.861 149.082 178.179 231.308 167.021C289.752 159.14 346.351 147.981 385.436 130.815C409.219 120.359 426.55 107.718 460.104 101.164C482.043 96.872 510.804 95.2334 527.212 90.2395C567.403 78.1449 533.296 46.3087 486.099 28.2839C437.058 9.55678 374.006 5.73334 325.703 -6.59534C279.612 -18.3778 247.164 -37.9633 238.683 -61.9964C230.387 -85.5614 245.136 -113.496 215.084 -123.562C183.374 -134.174 101.885 -125.044 54.688 -156.724C41.2294 -165.776 30.5364 -178.105 29.7989 -173.111C29.7989 -172.564 29.7989 -171.862 29.7989 -171.082" stroke="white" stroke-opacity="0.3" stroke-width="4" stroke-miterlimit="10" stroke-linecap="round" stroke-linejoin="round"/>
<rect width="527.018" height="337.4" fill="black" fill-opacity="0" transform="translate(-23.2979 -173.188)"/>
<path opacity="0.38" d="M-23.2979 164.212C66.3029 163.9 155.904 163.666 232.415 150.869C289.014 141.427 338.424 125.275 376.218 106.704C392.074 98.9009 406.085 90.6298 430.052 85.7139C450.332 81.5003 477.803 79.7056 491.999 75.8822C541.224 62.6952 424.89 26.0212 338.239 12.132C297.864 5.6555 263.941 4.0949 236.471 -3.31792C203.654 -12.0572 179.871 -29.0677 180.608 -45.2979C181.346 -61.6061 206.419 -77.134 196.648 -91.5695C191.301 -99.3724 175.631 -106.863 156.641 -112.559C119.584 -123.874 70.3589 -128.399 36.8047 -139.168C9.88761 -147.829 -6.70512 -160.548 -23.2979 -173.188" stroke="white" stroke-opacity="0.3" stroke-width="4" stroke-miterlimit="10" stroke-linecap="round" stroke-linejoin="round"/>
<rect width="487.369" height="265.579" fill="black" fill-opacity="0" transform="translate(-23.2979 -125.902)"/>
<path opacity="0.38" d="M-23.2979 136.199C44.9167 139.086 112.947 141.974 182.636 136.902C227.068 133.624 271.868 127.148 298.417 115.209C323.122 104.051 331.787 88.2111 368.291 80.174C398.158 73.6195 446.645 72.371 460.104 66.1287C479.646 56.9992 423.6 37.2577 366.263 26.4116C277.584 9.63518 185.771 14.1609 154.244 -2.38139C129.908 -15.1783 141.708 -40.6159 156.272 -64.0248C162.541 -74.0907 169.362 -83.8444 161.803 -90.4769C145.948 -104.366 67.5935 -104.834 19.4745 -114.198C2.8818 -117.397 -10.0237 -121.689 -23.1135 -125.902" stroke="white" stroke-opacity="0.3" stroke-width="4" stroke-miterlimit="10" stroke-linecap="round" stroke-linejoin="round"/>
<rect width="458.819" height="218.715" fill="black" fill-opacity="0" transform="translate(-23.2979 -97.1699)"/>
<path opacity="0.38" d="M-23.2979 112.946C34.408 117.394 92.2982 121.842 159.591 121.53C197.754 121.295 239.052 119.579 259.516 110.761C283.115 100.696 279.612 81.2662 312.06 72.9951C345.798 64.3338 418.069 67.533 432.634 62.6172C451.254 56.3748 376.403 37.1795 305.791 29.7667C210.291 19.7789 122.165 31.3273 96.9073 15.3312C81.6051 5.6555 89.164 -13.9299 98.1978 -29.6919C105.941 -43.3471 114.791 -53.9592 126.405 -67.4583C131.752 -73.7007 137.836 -80.6453 132.858 -85.4831C124.562 -93.5202 85.6611 -95.8611 53.3974 -96.7194C24.4523 -97.4997 0.66943 -97.1096 -23.1135 -96.7194" stroke="white" stroke-opacity="0.3" stroke-width="4" stroke-miterlimit="10" stroke-linecap="round" stroke-linejoin="round"/>
<rect width="323.539" height="179.771" fill="black" fill-opacity="0" transform="translate(-23.2979 -77.8467)"/>
<path opacity="0.38" d="M-23.2979 92.1125C38.2796 97.7307 99.8571 103.271 176.552 101.632C200.151 101.086 225.224 99.9155 235.918 95.3118C250.851 88.8353 237.946 75.6483 251.404 65.3484C262.835 56.609 293.255 49.9765 299.154 45.841C312.244 36.6335 204.023 39.9887 137.652 37.6478C94.6949 36.1653 69.4371 32.2638 38.0953 24.929C26.4804 22.276 13.7593 18.9987 8.78144 15.4874C-3.7553 6.98217 28.5084 -2.77154 51.3695 -15.3343C91.7451 -37.4167 103.176 -68.0043 62.9844 -75.6512C42.8887 -79.4747 9.88762 -77.524 -23.2979 -75.6512" stroke="white" stroke-opacity="0.3" stroke-width="4" stroke-miterlimit="10" stroke-linecap="round" stroke-linejoin="round"/>
<rect width="232.449" height="54.3452" fill="black" fill-opacity="0" transform="translate(-23.2979 34.0996)"/>
<path opacity="0.38" d="M-23.2979 75.4919C30.5364 81.9684 84.5549 88.4448 146.685 88.4448C163.647 88.4448 181.346 87.9766 192.776 84.3092C212.319 78.0669 214.163 62.617 199.414 56.1405C181.162 48.1815 137.652 53.7216 102.069 49.6641C66.4873 45.5285 38.6484 32.0294 13.7593 34.3703C0.853797 35.6187 -11.1298 41.0028 -23.2979 46.3868" stroke="white" stroke-opacity="0.3" stroke-width="4" stroke-miterlimit="10" stroke-linecap="round" stroke-linejoin="round"/>
<rect width="173.455" height="33.5974" fill="black" fill-opacity="0" transform="translate(-1.91992 47.2432)"/>
<path opacity="0.38" d="M42.5201 49.8205C32.7488 48.26 22.7932 46.6213 15.2342 47.4797C2.51315 48.9622 -3.93958 57.2334 -1.35849 62.8515C4.72551 75.9605 59.8503 74.3219 99.4885 77.6771C118.478 79.3158 134.149 82.0468 151.479 80.2521C158.854 79.5498 166.412 77.9893 169.731 75.8825C177.29 70.9666 159.775 63.0856 141.708 60.5106C120.506 57.5455 98.5666 61.9151 80.499 60.5106C66.1186 59.4182 54.3193 54.5804 42.5201 49.8205Z" stroke="white" stroke-opacity="0.3" stroke-width="4" stroke-miterlimit="10" stroke-linecap="round" stroke-linejoin="round"/>
<rect width="1494.85" height="499.596" fill="black" fill-opacity="0" transform="translate(-25.8926 -173.188)"/>
<path opacity="0.38" d="M187.8 -173.188C248.455 -167.57 309.111 -162.03 335.475 -149.389C367.554 -134.018 348.749 -108.19 361.839 -80.5673C378.063 -46.7804 442.406 -10.2625 507.302 -12.5254C542.7 -13.6959 578.282 -26.4147 621.976 -35.7002C677.101 -47.4827 744.947 -53.8811 789.01 -39.9138C823.67 -28.9897 843.581 -5.4247 877.504 -5.73682C895.388 -5.89288 917.143 -12.6815 939.451 -16.5829C1011.91 -29.4578 1089.52 -12.8375 1162.9 -6.51711C1203.28 -3.00578 1242.36 -2.61563 1284.58 1.28585C1367.91 8.85473 1463.78 29.6886 1468.76 57.3111C1472.63 79.1594 1419.72 105.299 1359.43 113.102C1295.27 121.452 1222.82 109.123 1154.42 115.053C1124.55 117.628 1095.61 123.636 1080.49 132.688C1042.88 155.16 1092.47 196.126 1059.66 210.483C1025.36 225.465 900.734 211.342 828.279 220.237C762.646 228.274 739.416 255.194 692.035 276.653C595.797 320.193 399.634 341.495 277.954 314.341C231.678 304.041 196.281 286.64 186.141 267.211C179.872 255.116 183.559 242.163 154.799 233.424C104.283 218.052 -46.7108 215.711 -23.481 233.424C-22.5592 234.204 -21.0843 234.985 -19.7937 235.765" stroke="white" stroke-opacity="0.3" stroke-width="4" stroke-miterlimit="10" stroke-linecap="round" stroke-linejoin="round"/>
<rect width="1492.24" height="263.184" fill="black" fill-opacity="0" transform="translate(-23.4814 130.19)"/>
<path opacity="0.38" d="M1468.76 130.19C1406.07 141.739 1343.39 153.287 1263.93 151.336C1232.96 150.556 1199.22 147.747 1180.6 150.556C1129.16 158.125 1191.11 207.674 1171.38 231.005C1147.04 259.642 999.922 248.717 900.365 257.847C740.522 272.439 703.096 338.374 583.628 370.834C499.19 393.697 374.007 399.861 267.629 386.128C202.733 377.701 144.843 361.939 127.881 338.608C108.154 311.375 143.552 273.843 92.6677 260.188C66.1193 253.087 16.1568 252.463 -23.1127 252.463C-23.2971 252.463 -23.2971 252.463 -23.4814 252.463" stroke="white" stroke-opacity="0.3" stroke-width="4" stroke-miterlimit="10" stroke-linecap="round" stroke-linejoin="round"/>
<rect width="544.69" height="214.351" fill="black" fill-opacity="0" transform="translate(172.154 487.959)"/>
<path opacity="0.38" d="M567.588 589.083C556.342 577.144 544.911 565.128 535.14 551.004C519.1 527.908 507.485 499.037 465.635 490.687C424.706 482.572 355.017 494.043 289.568 505.669C236.102 515.189 185.402 524.708 174.525 538.598C161.988 554.516 201.995 576.052 228.543 595.403C251.589 612.18 264.31 627.317 286.802 643.235C319.066 666.098 371.609 690.678 435.952 696.53C474.484 700.041 517.441 696.842 563.716 698.559C605.383 700.041 649.814 705.581 678.759 699.573C712.682 692.55 725.035 669.766 711.392 653.691C704.201 645.264 689.821 638.632 673.044 632.779C650.92 624.898 624.741 618.266 604.83 609.839C590.08 603.596 578.834 596.34 567.588 589.083Z" stroke="white" stroke-opacity="0.3" stroke-width="4" stroke-miterlimit="10" stroke-linecap="round" stroke-linejoin="round"/>
<rect width="777.384" height="278.232" fill="black" fill-opacity="0" transform="translate(52.2451 437.714)"/>
<path opacity="0.38" d="M583.812 567.548C589.527 576.131 595.243 584.714 605.751 592.907C614.048 599.306 625.478 605.392 639.859 609.918C668.066 618.891 707.889 621.622 743.655 628.957C790.853 638.555 831.413 656.033 829.569 673.98C828.094 687.479 802.652 701.29 769.098 708.703C737.018 715.726 697.565 716.818 659.954 715.414C623.082 714.087 587.868 710.342 552.286 709.718C506.011 708.937 458.814 713.385 410.695 711.824C384.884 710.966 358.704 708.313 338.424 703.553C293.992 693.097 276.847 672.185 260.254 652.288C242.002 630.44 224.303 609.84 180.056 594.936C138.943 581.125 74.9683 572.229 57.4538 554.127C47.3138 543.671 52.6603 530.093 67.5938 519.872C101.517 496.775 184.296 490.844 251.589 476.175C321.278 460.959 374.559 436.224 454.02 437.784C518.732 439.033 600.774 457.526 602.249 477.814C602.986 487.489 585.287 497.555 576.069 507.777C558.186 527.206 570.907 547.338 583.812 567.548Z" stroke="white" stroke-opacity="0.3" stroke-width="4" stroke-miterlimit="10" stroke-linecap="round" stroke-linejoin="round"/>
<rect width="1318.02" height="595.887" fill="black" fill-opacity="0" transform="translate(151.11 166.553)"/>
<path opacity="0.38" d="M151.11 622.948C171.759 631.688 192.592 640.427 209.185 649.712C242.923 668.674 259.516 689.976 262.65 715.647C264.494 731.175 261.544 748.186 284.037 756.379C315.378 767.771 395.945 761.763 447.383 749.434C478.356 742.021 498.82 732.19 525.184 727.976C567.219 721.266 624.741 728.678 681.34 734.297C744.577 740.617 806.892 744.753 857.039 736.013C901.286 728.288 935.947 710.576 944.98 691.302C957.701 663.914 918.248 633.248 849.48 621.856C793.065 612.57 716.923 616.082 676.731 604.221C644.652 594.78 635.434 575.506 626.584 557.091C618.288 540.081 610.36 523.851 635.249 510.664C662.72 495.994 730.565 485.07 733.7 472.351C737.571 456.823 643.915 438.72 628.428 420.851C613.679 403.841 670.463 386.987 710.47 367.635C765.226 341.183 788.64 309.893 841.368 298.735C908.476 284.612 1022.78 303.027 1141.7 299.281C1218.39 296.862 1297.12 285.236 1305.96 263.153C1316.47 237.404 1232.03 197.452 1271.3 184.734C1290.66 178.491 1339.7 178.881 1379.89 176.463C1413.82 174.434 1441.47 170.454 1469.13 166.553" stroke="white" stroke-opacity="0.3" stroke-width="4" stroke-miterlimit="10" stroke-linecap="round" stroke-linejoin="round"/>
<rect width="379.562" height="339.273" fill="black" fill-opacity="0" transform="translate(-87.9424 283.676)"/>
<path opacity="0.38" d="M151.11 622.949C132.674 615.77 114.053 608.591 92.8515 602.895C67.2249 596.028 37.5423 591.347 8.59724 585.26C-27.3537 577.77 -62.0141 568.25 -77.685 554.985C-90.5904 544.061 -90.5904 530.64 -81.741 519.794C-59.6173 493.029 17.078 481.481 118.847 469.464C201.257 459.711 300.076 449.723 291.042 434.117C285.696 424.831 242.186 413.595 200.151 407.509C156.826 401.266 114.975 400.486 86.03 392.995C45.6543 382.539 30.5365 358.974 39.5703 335.878C45.47 320.584 62.0627 305.524 44.5482 296.473C32.5645 290.308 4.7256 287.031 -23.1133 283.676" stroke="white" stroke-opacity="0.3" stroke-width="4" stroke-miterlimit="10" stroke-linecap="round" stroke-linejoin="round"/>
<rect width="230.386" height="71.7093" fill="black" fill-opacity="0" transform="translate(-71.7852 390.576)"/>
<path opacity="0.38" d="M-23.2975 462.285C74.5996 452.376 172.312 442.544 157.01 435.911C145.211 430.839 66.1189 427.64 14.8658 418.667C-25.3255 411.644 -48.5553 401.11 -71.7852 390.576" stroke="white" stroke-opacity="0.3" stroke-width="4" stroke-miterlimit="10" stroke-linecap="round" stroke-linejoin="round"/>
<rect width="1492.42" height="622.356" fill="black" fill-opacity="0" transform="translate(-23.2979 199.794)"/>
<path opacity="0.38" d="M-23.2979 606.875C12.6531 611.478 48.604 616.004 80.3145 623.573C133.227 636.214 174.893 657.204 189.642 678.038C209.922 706.596 180.424 734.999 170.284 769.098C165.306 785.641 165.122 803.431 184.48 813.029C234.074 837.686 412.907 808.269 487.943 773.39C507.485 764.338 520.022 754.819 539.196 749.825C577.728 739.759 643.546 747.874 708.626 755.989C855.195 774.404 998.814 792.975 1091.36 764.963C1121.42 755.833 1146.12 741.866 1155.34 727.508C1176.91 694.19 1114.59 659.154 1038.08 634.497C966.919 611.556 883.403 597.589 791.037 596.419C773.338 596.185 755.27 596.419 739.415 594.546C684.659 587.991 657.557 555.687 677.284 535.243C694.799 516.984 749.923 508.245 782.187 492.171C809.657 478.516 820.719 459.477 804.311 444.651C792.511 434.117 766.885 425.69 754.164 415.234C717.107 384.802 791.037 337.438 880.269 325.5C926.36 319.335 976.691 322.535 1027.76 326.748C1133.03 335.409 1241.99 347.894 1331.22 330.806C1378.97 321.676 1421.01 303.964 1420.27 283.052C1419.35 255.507 1344.31 222.423 1380.45 209.314C1396.12 203.617 1432.62 201.667 1469.13 199.794" stroke="white" stroke-opacity="0.3" stroke-width="4" stroke-miterlimit="10" stroke-linecap="round" stroke-linejoin="round"/>
<rect width="78.1073" height="59.5893" fill="black" fill-opacity="0" transform="translate(1090.49 451.438)"/>
<path opacity="0.38" d="M1094.87 489.284C1105.93 499.74 1117.18 510.196 1130.82 510.976C1150.55 512.147 1175.62 492.717 1166.77 476.721C1158.66 462.13 1122.34 450.347 1105.01 451.518C1085.1 452.844 1089.89 471.025 1094.87 489.284Z" stroke="white" stroke-opacity="0.3" stroke-width="4" stroke-miterlimit="10" stroke-linecap="round" stroke-linejoin="round"/>
<rect width="152.758" height="113.198" fill="black" fill-opacity="0" transform="translate(1054.1 431.18)"/>
<path opacity="0.38" d="M1202.54 492.794C1205.12 485.772 1207.7 478.749 1206.59 471.804C1204.75 461.192 1193.69 450.736 1168.8 442.387C1144.83 434.428 1107.96 428.342 1085.1 432.556C1067.4 435.833 1058.18 445.43 1055.23 454.248C1050.8 467.357 1060.21 478.905 1068.5 489.673C1076.62 500.207 1083.44 510.039 1101.14 522.758C1115.15 532.824 1135.8 544.684 1150.18 544.372C1167.32 544.06 1175.07 526.269 1184.1 513.55C1189.63 505.123 1196.08 498.959 1202.54 492.794Z" stroke="white" stroke-opacity="0.3" stroke-width="4" stroke-miterlimit="10" stroke-linecap="round" stroke-linejoin="round"/>
<rect width="223.708" height="166.195" fill="black" fill-opacity="0" transform="translate(1032.6 407.62)"/>
<path opacity="0.38" d="M1208.8 516.204C1219.13 509.649 1229.27 503.095 1237.75 495.916C1252.87 482.963 1261.53 467.825 1252.87 455.341C1242.73 440.905 1208.8 429.981 1162.53 420.071C1123.26 411.644 1074.96 403.997 1052.1 409.459C1029.42 414.843 1031.26 433.102 1034.58 448.708C1038.82 468.762 1045.46 484.29 1054.68 499.427C1065.19 516.75 1079.01 533.526 1102.43 555.843C1110.35 563.49 1119.57 571.761 1130.08 573.477C1149.81 576.677 1174.7 556.467 1189.08 541.719C1198.85 531.419 1203.83 523.851 1208.8 516.204Z" stroke="white" stroke-opacity="0.3" stroke-width="4" stroke-miterlimit="10" stroke-linecap="round" stroke-linejoin="round"/>
<rect width="335.859" height="237.007" fill="black" fill-opacity="0" transform="translate(960.426 363.7)"/>
<path opacity="0.38" d="M1219.87 549.913C1223.55 539.847 1227.06 529.859 1237.57 520.574C1252.13 507.699 1279.79 496.462 1290.66 483.275C1307.81 462.598 1283.66 437.238 1246.42 419.759C1201.43 398.691 1137.09 388.938 1062.97 374.424C1038.27 369.586 1012.27 364.202 994.575 363.734C935.394 362.173 966.92 415.077 987.016 451.205C1001.58 477.501 1010.43 494.98 1012.27 514.253C1014.12 531.654 1010.43 550.615 1040.11 570.747C1064.45 587.289 1111.09 604.612 1145.2 599.93C1164.19 597.277 1179.31 587.757 1190.55 578.94C1203.64 568.718 1211.75 559.354 1219.87 549.913Z" stroke="white" stroke-opacity="0.3" stroke-width="4" stroke-miterlimit="10" stroke-linecap="round" stroke-linejoin="round"/>
<rect width="583.135" height="284.894" fill="black" fill-opacity="0" transform="translate(818.912 340.097)"/>
<path opacity="0.38" d="M1077.72 609.995C1098.19 617.018 1118.65 624.04 1141.33 624.899C1172.3 626.069 1207.51 615.847 1227.43 604.455C1267.25 581.67 1246.41 554.048 1272.41 533.292C1294.53 515.735 1350.4 503.094 1379.16 484.133C1411.24 462.831 1409.39 433.57 1374.92 414.999C1331.22 391.434 1235.17 385.113 1160.87 369.664C1118.83 360.924 1083.62 349.142 1040.11 343.602C996.417 338.062 944.243 338.764 898.152 348.049C852.245 357.335 812.422 375.282 819.797 389.717C826.065 402.046 866.994 411.8 896.124 423.192C954.014 445.899 964.338 475.082 959.729 505.747C955.857 531.653 941.293 558.573 972.45 577.847C993.468 590.878 1035.5 600.397 1077.72 609.995Z" stroke="white" stroke-opacity="0.3" stroke-width="4" stroke-miterlimit="10" stroke-linecap="round" stroke-linejoin="round"/>
<rect width="226.18" height="161.628" fill="black" fill-opacity="0" transform="translate(711.903 431.119)"/>
<path opacity="0.38" d="M780.713 519.949C758.036 523.695 735.359 527.44 723.007 534.541C704.202 545.465 710.286 564.426 733.7 572.619C752.689 579.252 783.109 578.862 818.138 582.061C864.045 586.118 917.879 596.262 930.6 591.502C943.137 586.821 916.404 567.937 910.505 552.488C904.236 536.101 921.198 523.617 930.6 511.132C942.953 494.434 941.847 477.657 913.27 455.653C897.415 443.48 873.263 429.747 859.62 431.229C847.084 432.556 843.581 446.835 842.29 459.008C839.893 478.672 842.843 492.639 820.904 504.655C810.948 509.883 795.83 514.877 780.713 519.949Z" stroke="white" stroke-opacity="0.3" stroke-width="4" stroke-miterlimit="10" stroke-linecap="round" stroke-linejoin="round"/>
<rect width="128.681" height="109.464" fill="black" fill-opacity="0" transform="translate(781.019 464.425)"/>
<path opacity="0.38" d="M781.266 548.977C782.187 555.375 783.109 561.774 795.462 566.534C812.054 572.932 849.48 576.443 863.86 571.683C873.263 568.64 872.894 562.164 873.263 556.156C874.001 542.656 878.241 531.342 888.012 520.886C897.415 510.82 911.979 501.535 909.398 487.489C907.739 477.58 897.415 465.251 888.012 464.471C876.582 463.456 866.442 479.452 863.86 492.717C861.279 506.295 866.81 516.907 846.53 522.369C831.228 526.504 800.992 527.675 788.824 533.215C780.344 536.96 780.712 542.969 781.266 548.977Z" stroke="white" stroke-opacity="0.3" stroke-width="4" stroke-miterlimit="10" stroke-linecap="round" stroke-linejoin="round"/>
<rect width="194.368" height="106.979" fill="black" fill-opacity="0" transform="translate(1274.57 308.1)"/>
<path opacity="0.38" d="M1468.76 415.078C1441.66 408.134 1414.55 401.189 1375.47 392.84C1329.75 383.008 1267.8 371.226 1275.18 362.876C1280.89 356.322 1329.19 351.952 1367.54 346.802C1403.86 341.964 1431.33 336.502 1447.74 327.295C1457.51 321.755 1463.23 314.966 1468.94 308.1" stroke="white" stroke-opacity="0.3" stroke-width="4" stroke-miterlimit="10" stroke-linecap="round" stroke-linejoin="round"/>
<rect width="108.96" height="63.2821" fill="black" fill-opacity="0" transform="translate(1359.98 336.502)"/>
<path opacity="0.38" d="M1468.76 399.784C1447.56 393.932 1426.54 388.08 1397.22 381.057C1379.89 376.921 1359.8 372.318 1359.98 367.948C1360.17 363.11 1384.69 358.506 1405.7 355.463C1423.04 352.888 1437.97 351.484 1448.66 347.816C1457.14 344.929 1463.04 340.716 1468.94 336.502" stroke="white" stroke-opacity="0.3" stroke-width="4" stroke-miterlimit="10" stroke-linecap="round" stroke-linejoin="round"/>
<rect width="974.915" height="365.703" fill="black" fill-opacity="0" transform="translate(494.026 453.156)"/>
<path opacity="0.38" d="M494.026 804.134C515.413 791.571 536.799 778.93 569.431 773.39C602.985 767.694 648.523 769.41 688.346 773.39C757.666 780.335 809.657 793.99 875.844 804.134C978.903 819.974 1116.62 827.23 1198.11 804.134C1255.26 787.981 1284.58 756.926 1271.3 729.225C1259.14 704.256 1212.12 681.939 1218.76 660.247C1223.55 644.407 1256.74 628.801 1275.91 612.103C1302.46 588.928 1301.72 563.49 1330.85 542.266C1351.13 527.518 1385.61 514.878 1410.87 500.52C1436.68 485.851 1452.9 469.542 1468.94 453.156" stroke="white" stroke-opacity="0.3" stroke-width="4" stroke-miterlimit="10" stroke-linecap="round" stroke-linejoin="round"/>
<rect width="164.72" height="309.466" fill="black" fill-opacity="0" transform="translate(1304.22 494.668)"/>
<path opacity="0.38" d="M1320.16 804.134C1345.23 790.166 1370.49 776.121 1376.58 761.607C1390.4 728.679 1307.25 692.941 1304.3 658.608C1302.09 632.937 1344.5 608.045 1367.91 582.451C1378.97 570.357 1385.79 558.184 1396.86 546.402C1414 528.377 1441.47 511.522 1468.94 494.668" stroke="white" stroke-opacity="0.3" stroke-width="4" stroke-miterlimit="10" stroke-linecap="round" stroke-linejoin="round"/>
</g>
</svg>
